# xmcd
#
# Track frame offsets:
#	150
#	12272
#	24639
#	36409
#	49089
#	60745
#	73825
#	85227
#	96878
#	108943
#	120252
#	132308
#	143936
#	154475
#	166675
#	178797
#	188977
#	200627
#	211980
#	223206
#	232479
#	244106
#
# Disc length: 3396 seconds
#
# Revision: 1
# Processed by: cddbd v1.5.2PL0 Copyright (c) Steve Scherf et al.
# Submitted via: audiograbber 1.83.01
#
DISCID=4e0d4216
DTITLE=Betty Hall Jones - The Complete Betty Hall Jones
DYEAR=1900
DGENRE=
TTITLE0=That Early Morning Boogie
TTITLE1=Learn to Boogie
TTITLE2=Fine and Mellow
TTITLE3=The Same Old Boogie
TTITLE4=Make Me Know It
TTITLE5=Why Can't You Love That Way
TTITLE6=This Joint's Too Hip For Me
TTITLE7=If I Ever Cry (you'll never know)
TTITLE8=You Got To Have What It Takes
TTITLE9=I Never Miss The Sunshine (I'm so used to the rain)
TTITLE10=That's A Man For You
TTITLE11=Thrill Me
TTITLE12=Buddy Stay Off That Wine
TTITLE13=Richmond Blues
TTITLE14=Way After Hours
TTITLE15=Goin' Back To Town
TTITLE16=Frustration Frustration
TTITLE17=Poor Spending Daddy
TTITLE18=Shina No Yoru
TTITLE19=Love My Love
TTITLE20=Is He Handsome
TTITLE21=How Long Blues
EXTD=
EXTT0=
EXTT1=
EXTT2=
EXTT3=
EXTT4=
EXTT5=
EXTT6=
EXTT7=
EXTT8=
EXTT9=
EXTT10=
EXTT11=
EXTT12=
EXTT13=
EXTT14=
EXTT15=
EXTT16=
EXTT17=
EXTT18=
EXTT19=
EXTT20=
EXTT21=
PLAYORDER=
